<svg xmlns="http://www.w3.org/2000/svg" viewBox="0 0 500 500">
    <g id="freepik--Table--inject-6">
        <path
            d="M241.67,281.64a2.3,2.3,0,0,0,2.33,2.71,3.24,3.24,0,0,0,3.1-2.71,2.31,2.31,0,0,0-2.34-2.71A3.22,3.22,0,0,0,241.67,281.64Z"
            style="fill:#fff;opacity:0.7000000000000001"></path>
        <polygon points="129.41 413.95 132.03 413.95 135.39 301.78 131.94 301.78 129.41 413.95"
            style="fill:#263238"></polygon>
        <polygon points="129.41 413.95 132.03 413.95 135.39 301.78 131.94 301.78 129.41 413.95"
            style="fill:#fff;opacity:0.6000000000000001"></polygon>
        <polygon
            points="171.57 301.78 171.57 413.95 168.8 413.95 165.54 306.9 132.16 306.9 129.72 413.95 126.98 413.95 126.98 301.78 171.57 301.78"
            style="fill:#263238"></polygon>
        <polygon
            points="171.57 301.78 171.57 413.95 168.8 413.95 165.54 306.9 132.16 306.9 129.72 413.95 126.98 413.95 126.98 301.78 171.57 301.78"
            style="fill:#fff;opacity:0.4"></polygon>
        <polygon points="171.57 413.95 174.18 413.95 175.02 301.78 171.57 301.78 171.57 413.95"
            style="fill:#263238"></polygon>
        <polygon points="171.57 413.95 174.18 413.95 175.02 301.78 171.57 301.78 171.57 413.95"
            style="fill:#fff;opacity:0.6000000000000001"></polygon>
        <polygon points="271.31 413.95 273.92 413.95 277.29 301.78 273.83 301.78 271.31 413.95"
            style="fill:#263238"></polygon>
        <polygon points="271.31 413.95 273.92 413.95 277.29 301.78 273.83 301.78 271.31 413.95"
            style="fill:#fff;opacity:0.6000000000000001"></polygon>
        <polygon
            points="313.46 301.78 313.46 413.95 310.7 413.95 307.44 306.9 274.06 306.9 271.62 413.95 268.88 413.95 268.88 301.78 313.46 301.78"
            style="fill:#263238"></polygon>
        <polygon
            points="313.46 301.78 313.46 413.95 310.7 413.95 307.44 306.9 274.06 306.9 271.62 413.95 268.88 413.95 268.88 301.78 313.46 301.78"
            style="fill:#fff;opacity:0.4"></polygon>
        <polygon points="313.46 413.95 316.08 413.95 316.92 301.78 313.46 301.78 313.46 413.95"
            style="fill:#263238"></polygon>
        <polygon points="313.46 413.95 316.08 413.95 316.92 301.78 313.46 301.78 313.46 413.95"
            style="fill:#fff;opacity:0.6000000000000001"></polygon>
        <rect x="173.72" y="295.33" width="147.77" height="6.45"
            transform="translate(495.22 597.1) rotate(180)" style="fill:#263238"></rect>
        <rect x="173.72" y="295.33" width="147.77" height="6.45"
            transform="translate(495.22 597.1) rotate(180)" style="fill:#fff;opacity:0.5"></rect>
        <rect x="122.4" y="295.33" width="55.34" height="6.45"
            transform="translate(300.14 597.1) rotate(180)" style="fill:#263238"></rect>
        <rect x="122.4" y="295.33" width="55.34" height="6.45"
            transform="translate(300.14 597.1) rotate(180)"
            style="fill:#fff;opacity:0.30000000000000004"></rect>
    </g>
    <g id="freepik--character-2--inject-6">
        <path d="M293,258.26l2.55-4.63L299,258.4s-2.52,4-4.52,2.61Z" style="fill:#e4897b"></path>
        <polygon points="300.1 251.03 301.65 256.12 298.98 258.4 295.56 253.63 300.1 251.03"
            style="fill:#e4897b"></polygon>
        <path d="M296.81,252.92A14.45,14.45,0,0,0,299,258.4l.56-.48-1.76-5.56Z" style="opacity:0.2"></path>
        <polygon points="292.38 267.25 293.02 258.26 296.4 258.91 296.4 267.95 292.38 267.25"
            style="fill:#e4897b"></polygon>
        <polygon
            points="248.9 376.03 254.07 378.05 257.78 371.05 261.16 364.69 255.43 361.25 251.97 369.07 248.9 376.03"
            style="fill:#e4897b"></polygon>
        <polygon points="251.97 369.07 257.78 371.05 261.16 364.69 255.43 361.25 251.97 369.07"
            style="isolation:isolate;opacity:0.2"></polygon>
        <path
            d="M253.05,365.25l7,3.77s26.55-46.67,30.63-46.28,42.8,25.07,54.61,15.95.32-36.55.32-36.55-24.43-7-27.08-1.61a41,41,0,0,0-1.75,4.9c-.52,1.68-.91,3.1-.91,3.1h0c-.74-.3-24.87-10.19-35.64-4.89C269.29,309,253.05,365.25,253.05,365.25Z"
            style="fill:#263238"></path>
        <path
            d="M253.05,365.25l7,3.77s26.55-46.67,30.63-46.28,42.8,25.07,54.61,15.95.32-36.55.32-36.55-24.43-7-27.08-1.61a41,41,0,0,0-1.75,4.9c-.52,1.68-.91,3.1-.91,3.1h0c-.74-.3-24.87-10.19-35.64-4.89C269.29,309,253.05,365.25,253.05,365.25Z"
            style="fill:#fff;isolation:isolate;opacity:0.30000000000000004"></path>
        <polygon
            points="291.21 403.31 296.72 402.68 296.74 394.91 296.75 387.78 290.09 387.46 290.68 395.86 291.21 403.31"
            style="fill:#e4897b"></polygon>
        <polygon points="290.7 396.02 296.76 395.06 296.76 387.85 290.1 387.5 290.7 396.02"
            style="isolation:isolate;opacity:0.2"></polygon>
        <polygon points="263.51 366.7 253.23 361.56 252.16 365.91 259.94 369.93 263.51 366.7"
            style="fill:#263238"></polygon>
        <path
            d="M327.07,338.77s-1.69-.2-27.66-5c0,0-.59,33.22-1.82,58l-8,.26S278.12,337,279.47,328.75s11.22-9.42,11.22-9.42S307.83,332.65,327.07,338.77Z"
            style="fill:#263238"></path>
        <path
            d="M327.07,338.77s-1.69-.2-27.66-5c0,0-.59,33.22-1.82,58l-8,.26S278.12,337,279.47,328.75s11.22-9.42,11.22-9.42S307.83,332.65,327.07,338.77Z"
            style="fill:#fff;isolation:isolate;opacity:0.4"></path>
        <path
            d="M327.07,338.77s-1.69-.2-27.66-5c0,0-.59,33.22-1.82,58l-8,.26S278.12,337,279.47,328.75s11.22-9.42,11.22-9.42S307.83,332.65,327.07,338.77Z"
            style="isolation:isolate;opacity:0.30000000000000004"></path>
        <polygon points="299.06 389.51 288.15 389.26 289.64 393.76 298.49 393.84 299.06 389.51"
            style="fill:#263238"></polygon>
        <path
            d="M238.64,385.19a7,7,0,0,1,2.66-.3s3.34-1.4,7.36-8l3.44.46c1.69.22,4,2.16,3.58,3.74-.78,3.33-3.46,6.16-4.89,9.25l-.56-.23,1.76-5c.59-1.7-1.47-.27-2.56,1.38s-2.64,3.22-6.31,1.84C238.84,386.67,237.14,385.79,238.64,385.19Z"
            style="fill:#263238"></path>
        <path
            d="M249.54,375.1s-5.53,8.39-8.24,9.79c0,0,3,2.43,7.1-1.5,5.24-5.07,6.13-4.83,6.13-4.83a5,5,0,0,0-.15-1.47C254,375.16,249.54,375.1,249.54,375.1Z"
            style="fill:#e4897b"></path>
        <path
            d="M283,413.08a7.28,7.28,0,0,1,2.52-.92s2.9-2.15,5.24-9.54l3.45-.38c2.84-.31,4.52,1.38,4.38,3.43,0,2.61-2.57,9.5-2.57,9.5l-.6-.08.53-5.26c.17-1.79-1.49.09-2.16,1.94s-1.8,3.77-5.7,3.29C283.51,414.48,281.66,414,283,413.08Z"
            style="fill:#263238"></path>
        <path
            d="M291.17,400.7s-3.38,9.46-5.68,11.46c0,0,3.53,1.64,6.53-3.14,3.89-6.17,5.45-6,5.45-6a6.07,6.07,0,0,1-1.13-1.58C295.47,399.71,291.17,400.7,291.17,400.7Z"
            style="fill:#e4897b"></path>
        <path
            d="M300.28,244.29a.24.24,0,0,1-.21-.11,3.26,3.26,0,0,0-2.58-1.2h0a.26.26,0,0,1-.25-.24.26.26,0,0,1,.25-.26,3.72,3.72,0,0,1,3,1.43.24.24,0,0,1-.07.34A.22.22,0,0,1,300.28,244.29Z"
            style="fill:#263238"></path>
        <path d="M298.32,247.26a14.16,14.16,0,0,1-2.24,2.57,1.85,1.85,0,0,0,1.69.94Z"
            style="fill:#de5753"></path>
        <path
            d="M297.35,245.31c-.07.54.17,1,.53,1.07s.72-.36.79-.91-.17-1-.53-1.07S297.42,244.76,297.35,245.31Z"
            style="fill:#263238"></path>
        <path d="M298.28,244.45l-1.13-.62S297.62,244.9,298.28,244.45Z" style="fill:#263238"></path>
        <path
            d="M311.56,258.42a1.07,1.07,0,0,1-.22.15,9.92,9.92,0,0,1-3.59,1.55c-3.76.67-6.27,0-7.84-1.72h0c-2.19-2.63-2.55-7.12-2-12.49a20.08,20.08,0,0,1,1.48-6.22s0-.08,0-.1.07-.16.1-.22a7.33,7.33,0,0,1,5.62-4.22,14.53,14.53,0,0,1,3.2-.21C318.86,235.35,319.9,252.82,311.56,258.42Z"
            style="fill:#e4897b"></path>
        <path
            d="M311.34,258.57a9.7,9.7,0,0,1-3.59,1.4c-3.75.68-6.25-.08-7.83-1.86a10.53,10.53,0,0,0,6.69-.22A5.47,5.47,0,0,1,311.34,258.57Z"
            style="isolation:isolate;opacity:0.2"></path>
        <path
            d="M299.42,239.62s-.94,7.33,5.88,10.83c0,0,2.62,7.79,7,8.11,6,.44,11.72-7.85,10.07-16.66C320.24,230.47,303.17,228.72,299.42,239.62Z"
            style="fill:#263238"></path>
        <path
            d="M301.87,248.16c.06-1.15,1.08-3,2.85-2.68s2.63,5-2,5.76C302.11,251.35,301.75,250.56,301.87,248.16Z"
            style="fill:#e4897b"></path>
        <path
            d="M312.62,232.42s-6.94-2.12-11,.51c-4.69,3.08-6.58,6.41-1.47,12,0,0,12-3.24,15.86-2.24a42.07,42.07,0,0,1,6.62,2.28C323.88,237.18,316.61,231,312.62,232.42Z"
            style="fill:#263238"></path>
        <path
            d="M306,259.4s5.16,2.52,3.65,8.05L322.8,262s-7.17-.45-6.81-5.49C316,256.49,308.49,253.61,306,259.4Z"
            style="fill:#e4897b"></path>
        <path d="M320.15,242s2.6-7.47,8.48-6.18,5.44,7.61,1.23,9.56S319.75,246.58,320.15,242Z"
            style="fill:#263238"></path>
        <path
            d="M327.1,245.61s5.22,0,4.58,4.44a3.79,3.79,0,0,0-1.63-2.05s1.58,1.21,0,3.31c0,0,.63-1.37-1.52-2.32s-8.07-.86-7-3.78S327.1,245.61,327.1,245.61Z"
            style="fill:#263238"></path>
        <path d="M321.9,261.61l-3.21-2.3s-10.53,1.42-10.64,8.14S321.9,261.61,321.9,261.61Z"
            style="fill:#407BFF"></path>
        <path
            d="M315.89,308.53l10,5a22.72,22.72,0,0,0-9.13-8.14C316.28,307.11,315.89,308.53,315.89,308.53Z"
            style="isolation:isolate;opacity:0.2"></path>
        <path
            d="M323.82,261.61s-7.9-1.52-18.89,5.84c0,0-3.68,16.1,11.87,38l29.5-1.85S338.31,271.34,323.82,261.61Z"
            style="fill:#263238"></path>
        <path
            d="M305.82,282.29A54.26,54.26,0,0,0,307.9,289a72.07,72.07,0,0,0,8.9,16.42l29.5-1.85s-8-32.23-22.48-42c0,0-7.89-1.51-18.9,5.84C304.92,267.45,303.63,273.12,305.82,282.29Z"
            style="fill:#fff;isolation:isolate;opacity:0.1"></path>
        <path
            d="M305.82,282.29A54.26,54.26,0,0,0,307.9,289a83,83,0,0,1,1.49-8.64C308.63,280.45,306.41,282,305.82,282.29Z"
            style="isolation:isolate;opacity:0.2"></path>
        <path
            d="M313.26,273.18c-5.22,9.41-10.74,18.65-16.38,27.82a4.53,4.53,0,0,1-8.36-2.66c.38-6,.85-12.06,1.37-18.1s1.14-12.06,1.92-18.08a2.49,2.49,0,0,1,4.95.17c.73,12.09.89,24.21.87,36.32l-8.51-2.41c3.71-7.09,7.55-14.11,11.46-21.08,1.33-2.31,2.62-4.64,4-6.93,3.48-5.47,11.61-.83,8.69,4.95Z"
            style="fill:#263238"></path>
        <path
            d="M313.26,273.18c-5.22,9.41-10.74,18.65-16.38,27.82a4.53,4.53,0,0,1-8.36-2.66c.38-6,.85-12.06,1.37-18.1s1.14-12.06,1.92-18.08a2.49,2.49,0,0,1,4.95.17c.73,12.09.89,24.21.87,36.32l-8.51-2.41c3.71-7.09,7.55-14.11,11.46-21.08,1.33-2.31,2.62-4.64,4-6.93,3.48-5.47,11.61-.83,8.69,4.95Z"
            style="fill:#fff;opacity:0.1"></path>
        <polygon points="297.6 280.14 295.07 284.69 297.36 274.45 297.6 280.14" style="opacity:0.2"></polygon>
        <path
            d="M367.21,414.4,342,405.12l-25.48,9.29a1.35,1.35,0,0,1-1.81-1.26h0a1.36,1.36,0,0,1,.78-1.23L342,399.62l26.25,12.3a1.35,1.35,0,0,1,.77,1.22h0A1.34,1.34,0,0,1,367.21,414.4Z"
            style="fill:#263238"></path>
        <path
            d="M367.21,414.4,342,405.12l-25.48,9.29a1.35,1.35,0,0,1-1.81-1.26h0a1.36,1.36,0,0,1,.78-1.23L342,399.62l26.25,12.3a1.35,1.35,0,0,1,.77,1.22h0A1.34,1.34,0,0,1,367.21,414.4Z"
            style="fill:#fff;opacity:0.30000000000000004"></path>
        <polygon
            points="336.06 407.29 342 405.12 347.67 407.21 347.67 402.28 342 399.62 336.06 402.38 336.06 407.29"
            style="opacity:0.2"></polygon>
        <path
            d="M341.87,414.62h0a2.24,2.24,0,0,1-2.23-2l-.71-7.47v-62h5.88v62l-.71,7.47A2.25,2.25,0,0,1,341.87,414.62Z"
            style="fill:#263238"></path>
        <path
            d="M341.87,414.62h0a2.24,2.24,0,0,1-2.23-2l-.71-7.47v-62h5.88v62l-.71,7.47A2.25,2.25,0,0,1,341.87,414.62Z"
            style="fill:#fff;opacity:0.30000000000000004"></path>
        <rect x="338.93" y="343.11" width="5.88" height="7.22" style="opacity:0.2"></rect>
        <path
            d="M382.76,337.46a91.36,91.36,0,0,0-20.34-2.8c-7.06-.18-33.5,0-39.78,0a92,92,0,0,0-22.7,2.83c-4.66,1.19-3.22,7.92,1,8h80.58C385.92,345.65,387.52,338.68,382.76,337.46Z"
            style="fill:#407BFF"></path>
        <path
            d="M382.76,337.46a91.36,91.36,0,0,0-20.34-2.8c-7.06-.18-33.5,0-39.78,0a92,92,0,0,0-22.7,2.83c-4.66,1.19-3.22,7.92,1,8h80.58C385.92,345.65,387.52,338.68,382.76,337.46Z"
            style="opacity:0.30000000000000004"></path>
        <path
            d="M302.1,345.31a83.52,83.52,0,0,1,41.08,0c5.07,1.3,7.24-6.55,2.16-7.85a92.3,92.3,0,0,0-45.4,0c-5.07,1.29-2.92,9.15,2.16,7.85Z"
            style="fill:#407BFF"></path>
        <g style="opacity:0.30000000000000004">
            <path
                d="M302.1,345.31a83.52,83.52,0,0,1,41.08,0c5.07,1.3,7.24-6.55,2.16-7.85a92.3,92.3,0,0,0-45.4,0c-5.07,1.29-2.92,9.15,2.16,7.85Z"
                style="fill:#fff"></path>
        </g>
        <path
            d="M361.38,279.21a2.49,2.49,0,0,0-2.24,1.3,86.82,86.82,0,0,0-10.88,60,2.21,2.21,0,0,0,2.09,2c1.63.11,30.65,0,31.7,0A2.92,2.92,0,0,0,385,339a81.11,81.11,0,0,1,10.33-55.78,2.7,2.7,0,0,0-2.44-4C392.05,279.2,363.23,279.25,361.38,279.21Z"
            style="fill:#407BFF"></path>
        <path
            d="M361.38,279.21a2.49,2.49,0,0,0-2.24,1.3,86.82,86.82,0,0,0-10.88,60,2.21,2.21,0,0,0,2.09,2c1.63.11,30.65,0,31.7,0A2.92,2.92,0,0,0,385,339a81.11,81.11,0,0,1,10.33-55.78,2.7,2.7,0,0,0-2.44-4C392.05,279.2,363.23,279.25,361.38,279.21Z"
            style="opacity:0.2"></path>
        <path
            d="M353.49,339a81.11,81.11,0,0,1,10.33-55.78c1.81-3-2.88-5.74-4.68-2.74a86.82,86.82,0,0,0-10.88,60c.62,3.44,5.85,2,5.23-1.44Z"
            style="fill:#407BFF"></path>
        <g style="opacity:0.2">
            <path
                d="M353.49,339a81.11,81.11,0,0,1,10.33-55.78c1.81-3-2.88-5.74-4.68-2.74a86.82,86.82,0,0,0-10.88,60c.62,3.44,5.85,2,5.23-1.44Z"
                style="fill:#fff"></path>
        </g>
    </g>
    <g id="freepik--chart-4--inject-6">
        <circle cx="335.05" cy="196.75" r="18.87"
            transform="matrix(0.98, -0.2, 0.2, 0.98, -32.1, 69.58)" style="fill:#263238"></circle>
        <path d="M335.05,196.75l13.15,13.53a18.86,18.86,0,1,1-12.59-32.39Z" style="fill:#407BFF"></path>
        <path d="M335.05,196.75l13.15,13.53a18.86,18.86,0,0,1-15.32,5.21Z"
            style="fill:#fff;opacity:0.5"></path>
        <path
            d="M335.05,196.75l16.34,9.43a18.4,18.4,0,0,1-3,3.91,19,19,0,0,1-26.68,0,19.37,19.37,0,0,1-1.91-2.23Z"
            style="fill:#fff;opacity:0.4"></path>
        <path d="M328,203.84a10,10,0,1,1,14.17,0A10,10,0,0,1,328,203.84Z" style="fill:#fff"></path>
        <path d="M395,181.21h-24a.34.34,0,0,1,0-.68h24a.34.34,0,1,1,0,.68Z" style="fill:#263238"></path>
        <path d="M390.9,189.15h-20a.34.34,0,0,1,0-.68h20a.34.34,0,0,1,0,.68Z" style="fill:#263238"></path>
        <path d="M399.06,197.09H370.94a.34.34,0,0,1,0-.68h28.12a.34.34,0,1,1,0,.68Z"
            style="fill:#263238"></path>
        <path
            d="M395,205h-24a.34.34,0,0,1-.34-.34.34.34,0,0,1,.34-.34h24a.34.34,0,0,1,.34.34A.34.34,0,0,1,395,205Z"
            style="fill:#263238"></path>
        <path
            d="M396.34,213h-25.4a.34.34,0,0,1-.34-.34.34.34,0,0,1,.34-.34h25.4a.34.34,0,0,1,.34.34A.34.34,0,0,1,396.34,213Z"
            style="fill:#263238"></path>
        <rect x="360.36" y="178.52" width="4.84" height="4.71" style="fill:#263238"></rect>
        <rect x="360.36" y="186.46" width="4.84" height="4.71" style="fill:#263238"></rect>
        <rect x="360.36" y="194.4" width="4.84" height="4.71" style="fill:#407BFF"></rect>
        <rect x="360.36" y="202.34" width="4.84" height="4.71" style="fill:#407BFF"></rect>
        <rect x="360.36" y="210.28" width="4.84" height="4.71" style="fill:#407BFF"></rect>
        <rect x="360.36" y="186.46" width="4.84" height="4.71" style="fill:#fff;opacity:0.4"></rect>
        <rect x="360.36" y="202.34" width="4.84" height="4.71" style="fill:#fff;opacity:0.4"></rect>
        <rect x="360.36" y="210.28" width="4.84" height="4.71"
            style="fill:#fff;opacity:0.6000000000000001"></rect>
        <path
            d="M401.17,223.12H314.86a8.44,8.44,0,0,1-8.43-8.43V176.28a8.44,8.44,0,0,1,8.43-8.43h86.31a8.44,8.44,0,0,1,8.43,8.43v38.41A8.44,8.44,0,0,1,401.17,223.12Zm-86.31-54.27a7.45,7.45,0,0,0-7.43,7.43v38.41a7.44,7.44,0,0,0,7.43,7.43h86.31a7.43,7.43,0,0,0,7.43-7.43V176.28a7.44,7.44,0,0,0-7.43-7.43Z"
            style="fill:#407BFF"></path>
    </g>
    <g id="freepik--chart-3--inject-6">
        <rect x="223.66" y="190.47" width="2.72" height="49.78" style="fill:#407BFF"></rect>
        <rect x="223.66" y="190.47" width="2.72" height="49.78"
            style="isolation:isolate;opacity:0.2"></rect>
        <rect x="228.18" y="201.52" width="2.72" height="38.73" style="fill:#263238"></rect>
        <rect x="228.18" y="201.52" width="2.72" height="38.73" style="fill:#fff;opacity:0.4"></rect>
        <rect x="214.62" y="219.95" width="2.72" height="20.3" style="fill:#407BFF"></rect>
        <rect x="219.14" y="212.58" width="2.72" height="27.67" style="fill:#407BFF"></rect>
        <rect x="232.7" y="197.84" width="2.72" height="42.41" style="fill:#263238"></rect>
        <rect x="228.18" y="206.51" width="2.72" height="33.74" style="fill:#fff;opacity:0.4"></rect>
        <rect x="232.7" y="204.44" width="2.72" height="35.81" style="fill:#fff;opacity:0.4"></rect>
        <rect x="223.66" y="194.86" width="2.72" height="45.39" style="fill:#407BFF"></rect>
        <rect x="219.14" y="222.4" width="2.72" height="17.85" style="fill:#fff;opacity:0.4"></rect>
        <rect x="214.62" y="219.95" width="2.72" height="20.3" style="fill:#fff;opacity:0.2"></rect>
        <rect x="214.62" y="224.57" width="2.72" height="15.68" style="fill:#fff;opacity:0.4"></rect>
        <path d="M236.86,240.42H213.18a.17.17,0,1,1,0-.34h23.68a.17.17,0,0,1,0,.34Z"
            style="fill:#263238"></path>
        <rect x="261.52" y="201.52" width="2.72" height="38.73" style="fill:#407BFF"></rect>
        <rect x="261.52" y="201.52" width="2.72" height="38.73"
            style="isolation:isolate;opacity:0.2"></rect>
        <rect x="266.04" y="202.59" width="2.72" height="37.66" style="fill:#263238"></rect>
        <rect x="266.04" y="202.59" width="2.72" height="37.66" style="fill:#fff;opacity:0.4"></rect>
        <rect x="252.48" y="209.01" width="2.72" height="31.24" style="fill:#407BFF"></rect>
        <rect x="257" y="208.11" width="2.72" height="32.14" style="fill:#407BFF"></rect>
        <rect x="270.56" y="212.11" width="2.72" height="28.14" style="fill:#263238"></rect>
        <rect x="266.04" y="207.44" width="2.72" height="32.81" style="fill:#fff;opacity:0.4"></rect>
        <rect x="270.56" y="216.49" width="2.72" height="23.76" style="fill:#fff;opacity:0.4"></rect>
        <rect x="261.52" y="204.94" width="2.72" height="35.31" style="fill:#407BFF"></rect>
        <rect x="257" y="213.7" width="2.72" height="26.55" style="fill:#fff;opacity:0.4"></rect>
        <rect x="252.48" y="209.01" width="2.72" height="31.24" style="fill:#fff;opacity:0.2"></rect>
        <rect x="252.48" y="216.12" width="2.72" height="24.13" style="fill:#fff;opacity:0.4"></rect>
        <path d="M274.72,240.42H251a.17.17,0,1,1,0-.34h23.68a.17.17,0,0,1,0,.34Z"
            style="fill:#263238"></path>
        <path
            d="M278.31,251.13H210.26a8.44,8.44,0,0,1-8.43-8.43V190.28a8.44,8.44,0,0,1,8.43-8.43h68.05a8.44,8.44,0,0,1,8.43,8.43V242.7A8.44,8.44,0,0,1,278.31,251.13Zm-68.05-68.28a7.45,7.45,0,0,0-7.43,7.43V242.7a7.44,7.44,0,0,0,7.43,7.43h68.05a7.44,7.44,0,0,0,7.43-7.43V190.28a7.45,7.45,0,0,0-7.43-7.43Z"
            style="fill:#407BFF"></path>
    </g>
    <g id="freepik--chart-2--inject-6">
        <g style="isolation:isolate;opacity:0.2">
            <polygon
                points="348.26 148.04 279.17 148.04 279.17 109.3 279.73 109.3 279.73 147.48 348.26 147.48 348.26 148.04"></polygon>
        </g>
        <rect x="282.79" y="141.61" width="2.99" height="5.6" style="isolation:isolate;opacity:0.2"></rect>
        <rect x="282.79" y="141.61" width="2.99" height="1.63" style="fill:#407BFF"></rect>
        <rect x="288.88" y="132.66" width="2.99" height="14.55"
            style="isolation:isolate;opacity:0.2"></rect>
        <rect x="288.88" y="132.66" width="2.99" height="4.24" style="fill:#407BFF"></rect>
        <rect x="294.98" y="136.01" width="2.99" height="11.19"
            style="isolation:isolate;opacity:0.2"></rect>
        <rect x="294.98" y="136.01" width="2.99" height="3.26" style="fill:#407BFF"></rect>
        <rect x="301.08" y="130.87" width="2.99" height="16.34"
            style="isolation:isolate;opacity:0.2"></rect>
        <rect x="301.08" y="130.87" width="2.99" height="4.76" style="fill:#407BFF"></rect>
        <rect x="307.17" y="126.12" width="2.99" height="21.08"
            style="isolation:isolate;opacity:0.2"></rect>
        <rect x="307.17" y="126.12" width="2.99" height="6.14" style="fill:#407BFF"></rect>
        <rect x="313.27" y="122.53" width="2.99" height="24.68"
            style="isolation:isolate;opacity:0.2"></rect>
        <rect x="313.27" y="122.53" width="2.99" height="7.18" style="fill:#407BFF"></rect>
        <rect x="319.37" y="126.68" width="2.99" height="20.52"
            style="isolation:isolate;opacity:0.2"></rect>
        <rect x="319.37" y="126.68" width="2.99" height="5.98" style="fill:#407BFF"></rect>
        <rect x="325.46" y="125.79" width="2.99" height="21.42"
            style="isolation:isolate;opacity:0.2"></rect>
        <rect x="325.46" y="125.79" width="2.99" height="6.24" style="fill:#407BFF"></rect>
        <rect x="331.56" y="120.32" width="2.99" height="26.88"
            style="isolation:isolate;opacity:0.2"></rect>
        <rect x="331.56" y="120.32" width="2.99" height="7.83" style="fill:#407BFF"></rect>
        <rect x="337.66" y="114.81" width="2.99" height="32.39"
            style="isolation:isolate;opacity:0.2"></rect>
        <rect x="337.66" y="114.81" width="2.99" height="9.43" style="fill:#407BFF"></rect>
        <rect x="343.76" y="110" width="2.99" height="37.21" style="isolation:isolate;opacity:0.2"></rect>
        <rect x="343.76" y="110" width="2.99" height="10.83" style="fill:#407BFF"></rect>
        <rect x="294.98" y="103.45" width="36.97" height="1.54"
            style="isolation:isolate;opacity:0.2"></rect>
        <path
            d="M350.29,157.93H276.64a8.45,8.45,0,0,1-8.44-8.43V98.05a8.45,8.45,0,0,1,8.44-8.43h73.65a8.44,8.44,0,0,1,8.43,8.43V149.5A8.44,8.44,0,0,1,350.29,157.93ZM276.64,90.62a7.44,7.44,0,0,0-7.44,7.43V149.5a7.44,7.44,0,0,0,7.44,7.43h73.65a7.43,7.43,0,0,0,7.43-7.43V98.05a7.43,7.43,0,0,0-7.43-7.43Z"
            style="fill:#407BFF"></path>
    </g>
    <g id="freepik--chart-1--inject-6">
        <path
            d="M147.13,158.7s13-21.12,17.06-21.49S173,149.12,176.38,148s23.09-36.09,27.6-35.15,11.64,19.76,13.33,19.45,3.94-3.77,8.82,5.85A207,207,0,0,1,235,158.7Z"
            style="fill:#407BFF"></path>
        <path
            d="M147.13,158.7s13-21.12,17.06-21.49S173,149.12,176.38,148s23.09-36.09,27.6-35.15,11.64,19.76,13.33,19.45,3.94-3.77,8.82,5.85A207,207,0,0,1,235,158.7Z"
            style="fill:#fff;opacity:0.4"></path>
        <path
            d="M226.13,158.7s-16.51-36.24-21.77-37.88-12.4,14.42-16,17.28-9.34-10.47-11.69-10.66S163.61,148.29,160,148.1s-4.13-2.92-7.89-4.47-13.33,15.07-13.33,15.07Z"
            style="fill:#407BFF"></path>
        <path
            d="M229.14,158.7s-8.09-13.61-11.28-16.8-7.7,8-10.9,8.4-15-22.29-18.4-24-10.32,18.4-13.61,18.77-10-12.16-13.61-12.84-19.91,26.45-19.91,26.45Z"
            style="fill:#263238"></path>
        <path
            d="M229.14,158.7s-8.09-13.61-11.28-16.8-7.7,8-10.9,8.4-15-22.29-18.4-24-10.32,18.4-13.61,18.77-10-12.16-13.61-12.84-19.91,26.45-19.91,26.45Z"
            style="fill:#fff;opacity:0.4"></path>
        <rect x="136.56" y="158.37" width="99.53" height="0.66" style="fill:#263238"></rect>
        <path
            d="M226.88,158.7s-4-10-7.34-9.82-4.69,7.48-7.88,7.1-6.95-12-11.74-11.45-5.73,7.51-8.73,8.83-8.89-7.63-12.68-8.85S170.16,155.23,166,156s-5.82-4.9-8.26-4.42-9.34,7.14-9.34,7.14Z"
            style="fill:#263238"></path>
        <path
            d="M236,169.35H136.55a8.44,8.44,0,0,1-8.43-8.43V110.55a8.44,8.44,0,0,1,8.43-8.43H236a8.44,8.44,0,0,1,8.43,8.43v50.37A8.44,8.44,0,0,1,236,169.35Zm-99.44-66.23a7.43,7.43,0,0,0-7.43,7.43v50.37a7.43,7.43,0,0,0,7.43,7.43H236a7.43,7.43,0,0,0,7.43-7.43V110.55a7.43,7.43,0,0,0-7.43-7.43Z"
            style="fill:#407BFF"></path>
    </g>
</svg>